{"title":"1920 Evil Returns 2012 DVDRip","uid":7971843,"size":707407210,"categoryP":"video","categoryS":"movies","magnet":"?xt=urn:btih:8e0cfa5ffb1364929a7753578eb43129090dcf4a&amp;dn=1920+Evil+Returns+2012+DVDRip&amp;tr=udp%3A%2F%2Ftracker.openbittorrent.com%3A80&amp;tr=udp%3A%2F%2Fopen.demonii.com%3A1337&amp;tr=udp%3A%2F%2Ftracker.coppersurfer.tk%3A6969&amp;tr=udp%3A%2F%2Fexodus.desync.com%3A6969","seeders":0,"leechers":1,"uploader":"aliibhatti","files":4,"time":1356873458,"description":":Info:\nMovie Title______1920 Evil Returns 2012\n\nGenre____________Horror\nFormat___________mkv\nLanguage_________Hindi\n\nStotyLine:\nThis story revolves around a famous poet who meets a woman who is in trouble. In order to treat her, he takes her to \n\nShimla in a big hospital, but soon that woman gets possessed by devil and goes out of control. Now the question remains \n\nthat what is the relation that poet shares with her which compelled him to go to any extent to save her, why she was \n\npossessed by devil and who is the devil.\n\n\nVideo\nFormat                           : MPEG-4 Visual\nFormat profile                   : Advanced Simple@L5\nFormat settings, BVOP            : Yes\nFormat settings, QPel            : No\nFormat settings, GMC             : No warppoints\nFormat settings, Matrix          : Default (H.263)\nCodec ID                         : XVID\nCodec ID/Hint                    : XviD\nDuration                         : 1h 55mn\nBit rate                         : 666 Kbps\nWidth                            : 688 pixels\nHeight                           : 288 pixels\nDisplay aspect ratio             : 2.35:1\nFrame rate                       : 29.970 fps\nColor space                      : YUV\nChroma subsampling               : 4:2:0\nBit depth                        : 8 bits\nScan type                        : Progressive\nCompression mode                 : Lossy\nBits/(Pixel*Frame)               : 0.112\nStream size                      : 551 MiB (82%)\nWriting library                  : XviD 1.2.1 (UTC 2008-12-04)\n\nAudio\nFormat                           : AC-3\nFormat/Info                      : Audio Coding 3\nMode extension                   : CM (complete main)\nMuxing mode                      : Header stripping\nCodec ID                         : A_AC3\nDuration                         : 1h 55mn\nBit rate mode                    : Constant\nBit rate                         : 128 Kbps\nChannel(s)                       : 6 channels\nChannel positions                : Front: L C R, Side: L R, LFE\nSampling rate                    : 48.0 KHz\nBit depth                        : 16 bits\nCompression mode                 : Lossy\nDelay relative to video          : 9ms\nStream size                      : 106 MiB (16%)\n\n::Note::\nA sample is attached for viewing file quality.\n::Support::\nPlease seed and comment after downloading\n::RECOMMENDED MEDIA PLAYER::\nllllllll VLC Media Player llll\nllllllll The KM Player lllllll\n","torrent":{"xt":"urn:btih:8e0cfa5ffb1364929a7753578eb43129090dcf4a","amp;dn":"1920+Evil+Returns+2012+DVDRip","amp;tr":["udp%3A%2F%2Ftracker.openbittorrent.com%3A80","udp%3A%2F%2Fopen.demonii.com%3A1337","udp%3A%2F%2Ftracker.coppersurfer.tk%3A6969","udp%3A%2F%2Fexodus.desync.com%3A6969"],"infoHash":"8e0cfa5ffb1364929a7753578eb43129090dcf4a","infoHashBuffer":{"type":"Buffer","data":[142,12,250,95,251,19,100,146,154,119,83,87,142,180,49,41,9,13,207,74]},"announce":[],"urlList":[]}}